<!DOCTYPE svg PUBLIC "-//W3C//DTD SVG 20010904//EN" "http://www.w3.org/TR/2001/REC-SVG-20010904/DTD/svg10.dtd">
<svg version="1.0" xmlns="http://www.w3.org/2000/svg" width="144px" height="144px" viewBox="0 0 1440 1440" preserveAspectRatio="xMidYMid meet">
<g id="layer1" fill="#9b1a26" stroke="none">
 <path d="M450 1145 l-74 -75 149 0 149 0 -74 75 c-41 41 -75 75 -75 75 0 0 -34 -34 -75 -75z"/>
 <path d="M657 957 c-52 -26 -77 -70 -77 -132 0 -93 62 -155 155 -155 86 0 135 48 152 148 5 31 0 39 -58 98 -55 56 -68 64 -99 63 -19 -1 -52 -11 -73 -22z m141 -109 c2 -27 -1 -48 -6 -48 -5 0 -12 -13 -15 -29 -7 -33 -36 -47 -65 -32 -20 11 -32 56 -32 124 l0 38 58 -3 57 -3 3 -47z"/>
 <path d="M710 780 c0 -11 7 -23 15 -27 19 -7 20 -5 29 25 6 19 4 22 -18 22 -19 0 -26 -5 -26 -20z"/>
 <path d="M410 545 l0 -85 315 0 c308 0 315 0 315 20 0 19 -7 20 -174 20 -96 0 -185 4 -198 9 -13 5 -51 34 -86 65 -60 54 -65 56 -117 56 l-55 0 0 -85z"/>
 <path d="M1120 490 c0 -29 15 -32 38 -7 l21 22 -30 2 c-23 2 -29 -2 -29 -17z"/>
 </g>
<g id="layer2" fill="#a71c29" stroke="none">
 <path d="M550 1253 c-102 -104 -149 -153 -105 -110 l80 77 75 -75 74 -75 208 0 c166 0 209 -3 221 -14 12 -12 71 -343 89 -502 4 -32 -9 -52 -30 -48 -7 1 -8 0 -2 -3 7 -3 5 -12 -6 -24 -9 -10 -21 -16 -25 -13 -5 3 -9 -3 -9 -13 0 -11 59 41 160 142 182 182 176 169 140 309 -50 196 -190 370 -370 459 -101 49 -196 77 -270 77 l-45 0 -185 -187z"/>
 <path d="M825 920 c33 -33 60 -60 61 -60 1 0 0 10 -3 21 -8 28 -65 85 -94 92 -16 4 -7 -9 36 -53z"/>
 </g>
<g id="layer3" fill="#ffffff" stroke="none">
 <path d="M352 1053 c-16 -14 -27 -55 -51 -186 -32 -178 -31 -206 9 -227 18 -10 20 -20 20 -135 0 -168 -3 -165 169 -165 l129 0 31 35 30 35 204 0 c144 0 206 3 215 12 7 7 12 29 12 49 0 35 2 38 33 41 28 3 32 7 35 36 5 51 -69 491 -85 508 -12 12 -76 14 -373 14 -326 0 -360 -2 -378 -17z m454 -89 c49 -23 77 -68 81 -128 8 -97 -55 -166 -151 -166 -94 0 -156 62 -156 156 0 116 119 189 226 138z m-224 -390 c35 -31 73 -60 86 -65 13 -5 102 -9 198 -9 167 0 174 -1 174 -20 0 -20 -7 -20 -315 -20 l-315 0 0 85 0 85 55 0 c52 0 57 -2 117 -56z"/>
 <path d="M680 863 c0 -68 12 -113 32 -124 29 -15 58 -1 65 32 3 16 10 29 15 29 5 0 8 21 6 48 l-3 47 -57 3 -58 3 0 -38z m78 -85 c-2 -15 -10 -23 -23 -23 -13 0 -21 8 -23 23 -3 18 1 22 23 22 22 0 26 -4 23 -22z"/>
 </g>
<g id="layer4" fill="#c1202f" stroke="none">
 <path d="M532 1420 c-245 -65 -449 -270 -512 -516 -27 -105 -27 -263 0 -368 63 -248 268 -453 516 -516 105 -27 263 -27 368 0 248 63 453 268 516 516 11 43 20 109 20 148 l0 71 -173 -173 -172 -172 -203 0 -203 0 -30 -35 -31 -35 -129 0 c-172 0 -169 -3 -169 165 0 115 -2 125 -20 135 -40 21 -41 49 -8 227 l30 168 197 198 c108 109 198 200 200 203 12 12 -133 0 -197 -16z"/>
 </g>

</svg>